# xmcd CD database file
# Copyright (C) 1993-1998 Ti Kan
#
# Track frame offsets:
#	150
#	11285
#	23105
#	35145
#	49908
#	61940
#	72560
#	85015
#	97033
#	110278
#	124395
#	135023
#
# Disc length: 1944 seconds
#
# Revision: 1
# Processed by: cddbd v1.4b41PL1 Copyright (c) Steve Scherf et al.
# Submitted via: NotifyCDPlayer(CDDB) 1.51.2
#
DISCID=9b07960c
DTITLE=Marvin Gaye - I Heard It Through The Grapevine
DYEAR=1900
DGENRE=
TTITLE0=You
TTITLE1=Tear It Down
TTITLE2=Chained
TTITLE3=I Heard It Through The Grapevine
TTITLE4=At Last
TTITLE5=Some Kind Of Wonderful
TTITLE6=Loving You Is Sweeter Than Ever
TTITLE7=Change What You Can
TTITLE8=It's Love I Need
TTITLE9=Every Now And Then
TTITLE10=You're What's Happening In The World Today
TTITLE11=There Goes My Baby
EXTD=
EXTT0=
EXTT1=
EXTT2=
EXTT3=
EXTT4=
EXTT5=
EXTT6=
EXTT7=
EXTT8=
EXTT9=
EXTT10=
EXTT11=
PLAYORDER=
